<?xml version="1.0" standalone="no"?>
<!DOCTYPE svg PUBLIC "-//W3C//DTD SVG 20010904//EN"
 "http://www.w3.org/TR/2001/REC-SVG-20010904/DTD/svg10.dtd">
<svg version="1.0" xmlns="http://www.w3.org/2000/svg"
 width="500.000000pt" height="500.000000pt" viewBox="0 0 500.000000 500.000000"
 preserveAspectRatio="xMidYMid meet">

<g transform="translate(0.000000,500.000000) scale(0.100000,-0.100000)"
fill="#000000" stroke="none">
<path d="M0 2500 l0 -2500 2500 0 2500 0 0 2500 0 2500 -2500 0 -2500 0 0
-2500z m3050 1045 c223 -58 536 -140 695 -181 160 -41 304 -81 321 -88 54 -25
100 -73 130 -138 l29 -63 0 -575 0 -575 -33 -67 c-33 -68 -80 -114 -137 -136
-16 -6 -91 -27 -165 -46 -156 -40 -824 -215 -1077 -282 -193 -51 -306 -63
-418 -46 -55 9 -1199 304 -1420 367 -67 19 -127 72 -162 143 l-28 57 0 585 c0
574 0 586 21 631 29 62 81 119 129 140 42 18 1311 353 1425 375 40 8 107 12
175 9 100 -4 145 -13 515 -110z"/>
<path d="M3390 3190 c0 -55 33 -172 71 -248 l31 -63 -22 -52 c-12 -29 -35 -64
-51 -79 -34 -31 -38 -64 -9 -73 24 -7 40 1 40 20 0 8 13 21 28 29 16 8 39 30
52 49 l24 35 33 -27 33 -26 -52 -5 c-49 -5 -53 -7 -50 -30 1 -14 9 -32 18 -40
13 -13 17 -13 32 8 15 20 22 21 62 14 25 -4 64 -5 88 -2 58 9 63 -3 70 -159 7
-182 -16 -323 -107 -659 -11 -40 -18 -79 -15 -87 9 -24 46 -30 60 -10 17 23
89 326 120 505 23 128 25 164 21 310 -8 262 -50 354 -201 443 -68 40 -73 44
-60 62 8 10 14 32 14 48 0 25 -3 28 -27 26 -16 -2 -40 5 -55 15 -20 13 -38 16
-62 12 -24 -5 -37 -2 -46 9 -23 28 -40 18 -40 -25z"/>
<path d="M4035 3140 c10 -11 20 -20 23 -20 3 0 -3 9 -13 20 -10 11 -20 20 -23
20 -3 0 3 -9 13 -20z"/>
<path d="M1252 2810 c-38 -24 -57 -59 -48 -93 8 -35 36 -44 36 -12 0 53 47
112 71 88 4 -4 -32 -95 -81 -203 -50 -107 -90 -198 -90 -202 0 -4 4 -8 9 -8
19 0 57 67 118 210 l62 145 3 -150 c3 -138 4 -150 21 -150 14 0 27 21 51 80
33 81 83 185 90 185 2 0 -5 -39 -15 -87 -21 -101 -25 -203 -7 -221 7 -7 19
-12 28 -12 12 0 14 10 11 52 -5 71 34 297 64 371 6 13 2 17 -17 17 -20 0 -33
-15 -72 -80 -26 -43 -61 -110 -79 -148 l-32 -70 0 133 c0 117 -2 135 -19 154
-24 26 -61 27 -104 1z"/>
<path d="M2106 2814 c-15 -15 -27 -37 -73 -145 -19 -44 -22 -45 -57 -41 -48 6
-96 -31 -138 -104 -32 -58 -69 -91 -88 -79 -6 4 -8 14 -4 24 38 92 42 110 27
130 -33 47 -124 12 -174 -68 -52 -82 -29 -150 42 -121 16 7 33 20 38 29 8 13
12 12 28 -8 16 -19 25 -22 50 -17 18 4 37 14 44 22 10 13 14 12 31 -6 27 -29
53 -25 97 15 l38 35 6 -29 c8 -40 39 -48 82 -22 28 16 35 17 35 6 0 -14 29
-35 49 -35 5 0 23 11 39 25 29 24 29 24 47 5 24 -26 45 -25 88 4 33 23 35 23
40 5 11 -42 72 -31 98 18 l13 25 12 -34 c9 -27 16 -33 39 -33 22 0 36 10 60
41 l32 41 23 -19 c13 -11 32 -17 41 -15 12 3 19 -3 23 -19 12 -48 90 -54 149
-12 15 11 27 15 27 9 0 -14 29 -41 45 -41 7 0 28 12 45 26 l31 27 16 -23 c12
-18 22 -21 46 -16 17 4 41 16 54 28 l22 21 10 -27 c19 -49 76 -25 120 52 9 15
12 15 27 -6 11 -17 23 -23 40 -19 17 3 24 -1 28 -18 3 -12 19 -28 35 -35 62
-25 148 29 191 119 38 83 58 51 29 -46 -16 -51 -6 -66 41 -66 34 0 73 25 104
66 31 41 11 44 -27 3 -19 -20 -44 -36 -56 -36 -25 0 -25 1 -6 48 19 45 13 76
-20 98 -15 10 -25 26 -25 40 0 13 -4 24 -10 24 -13 0 -31 -36 -25 -52 2 -7
-10 -40 -28 -73 -49 -90 -131 -134 -157 -84 -7 11 -10 22 -8 23 2 1 28 14 59
29 59 28 83 59 77 98 -4 30 -44 37 -88 14 -31 -16 -90 -88 -90 -110 0 -17 -28
-27 -36 -14 -3 6 -3 35 1 66 6 53 6 55 -16 51 -18 -2 -25 -12 -31 -40 -8 -38
-48 -111 -68 -123 -19 -12 -23 2 -21 65 2 53 0 60 -17 60 -15 0 -22 -11 -31
-44 -11 -44 -53 -91 -75 -83 -14 5 -12 21 12 84 18 46 18 54 5 72 -35 50 -122
14 -179 -74 -54 -85 -129 -121 -154 -74 -14 25 -18 20 52 52 61 27 81 52 76
95 -8 74 -144 7 -172 -85 -9 -30 -34 -36 -47 -12 -7 15 -7 29 0 51 16 46 14
58 -13 58 -20 0 -25 -6 -31 -39 -7 -43 -51 -117 -74 -126 -12 -5 -13 7 -8 70
5 68 4 75 -13 75 -12 0 -21 -10 -25 -29 -8 -39 -61 -111 -80 -111 -20 0 -19
40 0 87 16 38 14 63 -5 63 -6 0 -24 -29 -41 -65 -32 -67 -73 -105 -92 -86 -7
7 -6 20 4 43 8 18 14 38 15 43 0 6 5 18 9 29 22 51 -56 74 -115 34 -19 -13
-51 -48 -72 -78 -35 -53 -71 -80 -85 -66 -14 14 17 118 70 232 50 108 59 144
37 144 -5 0 -16 -7 -24 -16z m-112 -227 c-3 -27 -54 -106 -80 -124 -50 -33
-57 19 -11 87 35 53 94 76 91 37z m-246 -12 c3 -23 -91 -135 -114 -135 -22 0
-17 39 11 86 41 69 96 96 103 49z m517 6 c7 -22 -6 -41 -72 -109 -23 -24 -46
-41 -52 -38 -24 15 24 118 72 151 29 20 44 19 52 -4z m575 5 c0 -18 -66 -76
-86 -76 -15 0 -14 3 1 28 33 52 85 82 85 48z m208 -11 c3 -23 -91 -135 -114
-135 -22 0 -17 39 11 86 41 69 96 96 103 49z m452 17 c0 -24 -67 -82 -95 -82
-9 0 11 33 39 63 23 25 56 37 56 19z"/>
<path d="M3670 2210 c0 -47 4 -80 10 -80 6 0 10 33 10 80 0 47 -4 80 -10 80
-6 0 -10 -33 -10 -80z"/>
<path d="M3083 2273 c26 -4 27 -6 27 -74 0 -39 4 -69 10 -69 6 0 10 30 10 69
0 68 1 70 28 74 15 2 -2 4 -38 4 -36 0 -53 -2 -37 -4z"/>
<path d="M3207 2244 c-11 -11 -8 -114 3 -114 6 0 10 18 10 39 0 30 6 44 22 55
12 9 19 19 15 22 -4 4 -13 2 -21 -5 -10 -8 -15 -9 -18 -1 -2 6 -7 8 -11 4z"/>
<path d="M3303 2243 c-24 -9 -13 -21 18 -19 18 0 34 -5 36 -11 3 -8 -4 -13
-19 -13 -37 0 -62 -22 -54 -48 6 -19 14 -22 52 -20 l44 1 0 48 c0 38 -4 51
-19 59 -21 11 -38 12 -58 3z m55 -75 c-7 -21 -36 -34 -49 -21 -6 6 -8 16 -5
22 10 15 59 14 54 -1z"/>
<path d="M3400 2245 c0 -18 52 -116 60 -113 14 4 61 106 51 112 -4 3 -18 -16
-30 -42 l-23 -46 -20 47 c-11 26 -24 47 -29 47 -5 0 -9 -2 -9 -5z"/>
<path d="M3552 2234 c-30 -21 -31 -79 -2 -94 26 -14 72 -9 78 8 3 9 -2 10 -20
3 -15 -5 -31 -5 -41 0 -30 17 -18 29 28 29 38 0 45 3 45 19 0 20 -34 51 -55
51 -6 0 -21 -7 -33 -16z m58 -19 c11 -13 7 -15 -24 -15 -34 0 -44 8 -29 23 11
12 40 8 53 -8z"/>
</g>
</svg>
